<?xml version="1.0" encoding="UTF-8" standalone="no"?>
<!-- Created with Inkscape (http://www.inkscape.org/) -->

<svg
   width="127.99999"
   height="128"
   viewBox="0 0 33.866664 33.866667"
   version="1.1"
   id="svg1"
   xmlns="http://www.w3.org/2000/svg"
   xmlns:svg="http://www.w3.org/2000/svg">
  <defs
     id="defs1" />
  <g
     id="layer1">
    <path
       d="M 0,0 V 25.4 H 9.1870361 C 9.1347968,25.251334 9.0824479,25.102623 9.0356241,24.951448 8.973963,24.75237 8.9171313,24.551067 8.8650919,24.347868 8.8130526,24.144669 8.7661707,23.939458 8.7240153,23.732401 8.6818597,23.525346 8.6444037,23.316219 8.6123942,23.105566 c -0.03201,-0.210652 -0.059014,-0.422668 -0.080615,-0.636653 -0.021602,-0.213987 -0.037644,-0.429931 -0.048576,-0.646989 -0.010932,-0.217059 -0.016537,-0.43539 -0.016537,-0.655257 0,-0.219869 0.0056,-0.438199 0.016537,-0.655258 0.010932,-0.217057 0.026974,-0.433002 0.048576,-0.646989 0.021602,-0.213985 0.048606,-0.426 0.080615,-0.636653 0.03201,-0.210653 0.069465,-0.419778 0.1116211,-0.626835 0.042155,-0.207057 0.089037,-0.412268 0.1410766,-0.615467 0.052039,-0.203198 0.1088711,-0.404502 0.1705322,-0.60358 0.061661,-0.199079 0.1284499,-0.395965 0.1994711,-0.590662 0.071021,-0.194697 0.1462238,-0.387172 0.2263427,-0.577226 0.080119,-0.190052 0.1647765,-0.377609 0.2537313,-0.562756 0.088955,-0.185147 0.1825576,-0.367791 0.2800863,-0.54777 0.097527,-0.17998 0.1990515,-0.357201 0.3048905,-0.531751 0.105841,-0.174549 0.215805,-0.346356 0.329696,-0.515214 0.113891,-0.168857 0.231788,-0.33474 0.353467,-0.497644 0.121678,-0.162904 0.247,-0.322869 0.376204,-0.479557 0.129205,-0.156688 0.262474,-0.310227 0.398942,-0.460437 0.136469,-0.15021 0.276143,-0.29733 0.419613,-0.4408 0.14347,-0.14347 0.29059,-0.283144 0.4408,-0.419613 0.15021,-0.136468 0.303749,-0.269737 0.460437,-0.398942 0.156688,-0.129204 0.316653,-0.254526 0.479557,-0.376204 0.162904,-0.121679 0.328787,-0.239576 0.497644,-0.353467 0.168858,-0.113891 0.340665,-0.223855 0.515214,-0.329696 0.17455,-0.105839 0.351771,-0.207362 0.531751,-0.3048905 0.179979,-0.097529 0.362623,-0.1911314 0.54777,-0.2800863 0.185147,-0.088955 0.372704,-0.1736122 0.562756,-0.2537313 0.190054,-0.080119 0.382529,-0.1553217 0.577226,-0.2263427 0.194697,-0.071021 0.391583,-0.1378098 0.590662,-0.1994711 0.199078,-0.061661 0.400382,-0.1184928 0.60358,-0.1705322 0.203199,-0.052039 0.40841,-0.098921 0.615467,-0.1410766 0.207057,-0.042156 0.416182,-0.079612 0.626835,-0.1116211 0.210653,-0.03201 0.422668,-0.059014 0.636653,-0.080615 0.213987,-0.021602 0.429932,-0.037644 0.646989,-0.048576 0.217059,-0.010932 0.435389,-0.016537 0.655258,-0.016537 0.219867,0 0.438198,0.0056 0.655257,0.016537 0.217058,0.010932 0.433002,0.026974 0.646989,0.048576 0.213985,0.021602 0.426001,0.048606 0.636653,0.080615 0.210653,0.03201 0.41978,0.069465 0.626835,0.1116211 0.207057,0.042155 0.412268,0.089037 0.615467,0.1410766 0.203199,0.052039 0.404502,0.1088711 0.60358,0.1705322 0.151175,0.046824 0.299886,0.099173 0.448552,0.151412 V 0 Z M 2.1166667,2.1166667 H 21.166667 L 23.283333,4.2333333 21.166667,6.35 H 2.1166667 Z m 0,6.3499999 H 8.4666666 L 10.583333,10.583333 8.4666666,12.7 H 2.1166667 Z m 0,6.3500004 H 4.2333333 L 6.35,16.933333 4.2333333,19.05 H 2.1166667 Z"
       style="fill:#f38d8d;stroke-width:4.23386;stroke-linecap:round;stroke-miterlimit:1.6"
       id="path48" />
    <path
       d="m 21.166667,8.4666666 c -0.219869,0 -0.438199,0.0056 -0.655258,0.016537 -0.217056,0.010932 -0.433002,0.026974 -0.646989,0.048576 -0.213984,0.021602 -0.426001,0.048606 -0.636653,0.080615 -0.210653,0.032009 -0.419779,0.069466 -0.626835,0.1116211 -0.207057,0.042155 -0.412268,0.089037 -0.615467,0.1410766 -0.203196,0.052039 -0.404504,0.1088713 -0.60358,0.1705322 -0.151175,0.046824 -0.299905,0.099067 -0.448552,0.151412 V 19.05 H 14.816667 12.7 v -7.361825 c -0.02667,0.02384 -0.05467,0.04624 -0.08113,0.07028 -0.15021,0.136468 -0.29733,0.276143 -0.4408,0.419613 -0.14347,0.14347 -0.283145,0.29059 -0.419613,0.4408 -0.136468,0.15021 -0.269738,0.303749 -0.398942,0.460437 -0.129204,0.156688 -0.254526,0.316654 -0.376204,0.479557 -0.121678,0.162904 -0.239577,0.328787 -0.353467,0.497644 -0.11389,0.168858 -0.223855,0.340665 -0.329696,0.515214 -0.105838,0.17455 -0.207362,0.351772 -0.3048905,0.531751 -0.097529,0.179979 -0.1911317,0.362623 -0.2800863,0.54777 -0.088955,0.185147 -0.1736124,0.372705 -0.2537313,0.562756 -0.080119,0.190053 -0.1553219,0.382529 -0.2263427,0.577226 -0.071021,0.194697 -0.1378099,0.391583 -0.1994711,0.590662 -0.061661,0.199076 -0.1184929,0.400384 -0.1705322,0.60358 -0.052039,0.203199 -0.098921,0.40841 -0.1410766,0.615467 -0.042155,0.207056 -0.079612,0.416182 -0.1116211,0.626835 -0.03201,0.210652 -0.059014,0.422669 -0.080615,0.636653 -0.021602,0.213987 -0.037644,0.429933 -0.048576,0.646989 -0.010932,0.217059 -0.016537,0.435389 -0.016537,0.655258 0,0.219866 0.0056,0.438199 0.016537,0.655257 0.010932,0.217058 0.026974,0.433002 0.048576,0.646989 0.021602,0.213984 0.048606,0.426003 0.080615,0.636653 0.032009,0.210653 0.069466,0.419781 0.1116211,0.626835 0.042155,0.207057 0.089037,0.412268 0.1410766,0.615467 0.052039,0.203198 0.1088713,0.404504 0.1705322,0.60358 0.046824,0.151175 0.099173,0.299886 0.151412,0.448552 0.016554,0.04711 0.030969,0.09526 0.048059,0.14211 0.071021,0.194697 0.146224,0.387173 0.2263427,0.577226 0.080119,0.190053 0.1647768,0.377609 0.2537313,0.562756 0.088955,0.185147 0.1825579,0.367793 0.2800863,0.54777 0.097526,0.179979 0.1990526,0.357202 0.3048906,0.531751 0.105841,0.174549 0.215806,0.346356 0.329696,0.515214 0.11389,0.168857 0.231789,0.33474 0.353467,0.497644 0.121678,0.162903 0.247,0.32287 0.376204,0.479557 0.129204,0.156688 0.262474,0.310227 0.398942,0.460437 0.136468,0.15021 0.276143,0.29733 0.419613,0.4408 0.14347,0.14347 0.29059,0.283145 0.4408,0.419613 0.15021,0.136468 0.303749,0.269738 0.460437,0.398942 0.156688,0.129204 0.316654,0.254526 0.479557,0.376204 0.162904,0.121679 0.328787,0.239577 0.497644,0.353467 0.168858,0.11389 0.340665,0.223855 0.515214,0.329696 0.17455,0.10584 0.351772,0.207362 0.531751,0.304891 0.179979,0.09753 0.362623,0.191131 0.54777,0.280086 0.185147,0.08895 0.372705,0.173612 0.562756,0.253731 0.190053,0.08012 0.382529,0.155322 0.577226,0.226343 0.194697,0.07102 0.391583,0.13781 0.590662,0.199471 0.199076,0.06166 0.400384,0.118493 0.60358,0.170532 0.203199,0.05204 0.40841,0.09892 0.615467,0.141077 0.207056,0.04216 0.416182,0.07961 0.626835,0.111621 0.210652,0.03201 0.422669,0.05899 0.636653,0.08062 0.213987,0.0216 0.429933,0.03764 0.646989,0.04858 0.217059,0.01093 0.435389,0.01654 0.655258,0.01654 0.219866,0 0.438199,-0.0056 0.655257,-0.01654 0.217058,-0.01093 0.433002,-0.02697 0.646989,-0.04858 0.213984,-0.0216 0.426003,-0.04861 0.636653,-0.08062 0.210653,-0.03201 0.419781,-0.06947 0.626835,-0.111621 0.207057,-0.04216 0.412268,-0.08904 0.615467,-0.141077 0.203198,-0.05204 0.404504,-0.108871 0.60358,-0.170532 0.199079,-0.06166 0.395965,-0.12845 0.590662,-0.199471 0.194697,-0.07102 0.387173,-0.146224 0.577226,-0.226343 0.190053,-0.08012 0.377609,-0.164776 0.562756,-0.253731 0.185147,-0.08895 0.367793,-0.182558 0.54777,-0.280086 0.179979,-0.09753 0.357202,-0.199051 0.531751,-0.304891 0.149882,-0.09088 0.296651,-0.186355 0.44235,-0.283187 H 27.516667 25.4 v -4.233333 h 2.116667 2.116666 v 3.128491 c 0.02667,-0.02382 0.05467,-0.04624 0.08113,-0.07028 0.15021,-0.136468 0.29733,-0.276143 0.4408,-0.419613 0.14347,-0.14347 0.283145,-0.29059 0.419613,-0.4408 0.136468,-0.15021 0.269738,-0.303749 0.398942,-0.460437 0.129204,-0.156687 0.254526,-0.316654 0.376204,-0.479557 0.121679,-0.162904 0.239577,-0.328787 0.353467,-0.497644 0.11389,-0.168858 0.223855,-0.340665 0.329696,-0.515214 0.10584,-0.174549 0.207362,-0.351772 0.304891,-0.531751 0.09753,-0.179977 0.191131,-0.362623 0.280086,-0.54777 0.08895,-0.185147 0.173612,-0.372703 0.253731,-0.562756 0.08012,-0.190053 0.155322,-0.382529 0.226343,-0.577226 0.07102,-0.194697 0.13781,-0.391583 0.199471,-0.590662 0.06166,-0.199076 0.118493,-0.400382 0.170532,-0.60358 0.05204,-0.203199 0.09892,-0.40841 0.141077,-0.615467 0.04216,-0.207054 0.07961,-0.416182 0.111621,-0.626835 0.03201,-0.21065 0.05899,-0.422669 0.08062,-0.636653 0.0216,-0.213987 0.03764,-0.429931 0.04858,-0.646989 0.01093,-0.217058 0.01654,-0.435391 0.01654,-0.655257 0,-0.219869 -0.0056,-0.438199 -0.01654,-0.655258 -0.01093,-0.217056 -0.02697,-0.433002 -0.04858,-0.646989 -0.0216,-0.213984 -0.04861,-0.426001 -0.08062,-0.636653 -0.03201,-0.210653 -0.06947,-0.419779 -0.111621,-0.626835 -0.04216,-0.207057 -0.08904,-0.412268 -0.141077,-0.615467 -0.05204,-0.203196 -0.108871,-0.404504 -0.170532,-0.60358 -0.06166,-0.199079 -0.12845,-0.395965 -0.199471,-0.590662 -0.07102,-0.194697 -0.146224,-0.387173 -0.226343,-0.577226 -0.08012,-0.190051 -0.164776,-0.377609 -0.253731,-0.562756 -0.08895,-0.185147 -0.182558,-0.367791 -0.280086,-0.54777 -0.09753,-0.179979 -0.199051,-0.357201 -0.304891,-0.531751 -0.105841,-0.174549 -0.215806,-0.346356 -0.329696,-0.515214 -0.11389,-0.168857 -0.231788,-0.33474 -0.353467,-0.497644 -0.121678,-0.162903 -0.247,-0.322869 -0.376204,-0.479557 -0.129204,-0.156688 -0.262474,-0.310227 -0.398942,-0.460437 -0.136468,-0.15021 -0.276143,-0.29733 -0.419613,-0.4408 -0.14347,-0.14347 -0.29059,-0.283145 -0.4408,-0.419613 -0.15021,-0.136468 -0.303749,-0.269738 -0.460437,-0.398942 C 29.097339,11.230309 28.937372,11.104987 28.774469,10.983309 28.611565,10.861631 28.445682,10.743732 28.276825,10.629842 28.107967,10.515952 27.93616,10.405987 27.761611,10.300146 27.587068,10.194307 27.409841,10.092784 27.229862,9.9952555 27.049885,9.8977271 26.867239,9.8041238 26.682092,9.7151692 26.496945,9.6262147 26.309389,9.5415568 26.119336,9.4614379 25.929283,9.3813192 25.736807,9.306116 25.54211,9.2350952 25.49526,9.2180054 25.447109,9.2035896 25.4,9.1870361 25.251334,9.1347969 25.102623,9.0824478 24.951448,9.0356241 24.752372,8.9739632 24.551066,8.9171312 24.347868,8.8650919 24.144669,8.8130528 23.939458,8.7661705 23.732401,8.7240153 23.525347,8.6818598 23.316219,8.6444035 23.105566,8.6123942 22.894916,8.5803842 22.682897,8.5533799 22.468913,8.5317789 22.254926,8.510177 22.038982,8.4941351 21.821924,8.4832031 21.604866,8.4722711 21.386533,8.4666666 21.166667,8.4666666 Z M 19.05,10.583333 h 2.116667 2.116666 V 22.225 H 21.166667 19.05 Z m 6.35,3.175 h 2.116667 2.116666 V 25.4 H 27.516667 25.4 Z M 12.7,22.225 h 2.116667 2.116666 V 25.4 26.458333 H 14.816667 12.7 V 25.4 Z m 6.35,2.116667 h 2.116667 2.116666 V 25.4 28.575 H 21.166667 19.05 V 25.4 Z"
       style="fill:#f3bf8b;stroke-width:4.23386;stroke-linecap:round;stroke-miterlimit:1.6"
       id="path47" />
  </g>
</svg>
